<svg fill="#000000" xmlns="http://www.w3.org/2000/svg"  viewBox="0 0 128 128" width="64px" height="64px"><path d="M 44 1 C 37.77 1 31.940078 3.4503906 27.580078 7.9003906 C 26.420078 9.0803906 26.439141 10.980625 27.619141 12.140625 C 28.799141 13.300625 30.699375 13.279609 31.859375 12.099609 C 35.089375 8.8096094 39.4 7 44 7 L 104 7 C 113.37 7 121 14.63 121 24 L 121 84 C 121 88.54 119.22953 92.809531 116.01953 96.019531 C 114.84953 97.189531 114.84953 99.089766 116.01953 100.25977 C 116.60953 100.84977 117.37062 101.14062 118.14062 101.14062 C 118.91063 101.14062 119.67977 100.84977 120.25977 100.25977 C 124.60977 95.919766 127 90.14 127 84 L 127 24 C 127 11.32 116.68 1 104 1 L 44 1 z M 24 21 C 11.32 21 1 31.32 1 44 L 1 104 C 1 116.68 11.32 127 24 127 L 84 127 C 96.68 127 107 116.68 107 104 L 107 44 C 107 31.32 96.68 21 84 21 L 24 21 z M 24 27 L 84 27 C 93.37 27 101 34.63 101 44 L 101 104 C 101 113.37 93.37 121 84 121 L 24 121 C 14.63 121 7 113.37 7 104 L 7 44 C 7 34.63 14.63 27 24 27 z M 43 41 C 41.34 41 40 42.34 40 44 L 40 51 L 37 51 C 35.34 51 34 52.34 34 54 C 34 55.66 35.34 57 37 57 L 40 57 L 40 91 L 37 91 C 35.34 91 34 92.34 34 94 C 34 95.66 35.34 97 37 97 L 40 97 L 40 104 C 40 105.66 41.34 107 43 107 C 44.66 107 46 105.66 46 104 L 46 97 L 54 97 L 54 104 C 54 105.66 55.34 107 57 107 C 58.66 107 60 105.66 60 104 L 60 97 L 65 97 C 72.17 97 78 91.17 78 84 C 78 78.37 74.400625 73.589297 69.390625 71.779297 C 71.020625 69.609297 72 66.92 72 64 C 72 57.17 66.7 51.560781 60 51.050781 L 60 44 C 60 42.34 58.66 41 57 41 C 55.34 41 54 42.34 54 44 L 54 51 L 46 51 L 46 44 C 46 42.34 44.66 41 43 41 z M 46 57 L 59 57 C 62.86 57 66 60.14 66 64 C 66 67.86 62.86 71 59 71 L 46 71 L 46 57 z M 46 77 L 59 77 L 65 77 C 68.86 77 72 80.14 72 84 C 72 87.86 68.86 91 65 91 L 46 91 L 46 77 z"/></svg>